<?xml version="1.0" standalone="no"?>
<svg xmlns:xlink="http://www.w3.org/1999/xlink" id="wave" style="transform:rotate(0deg); transition: 0.3s" viewBox="0 0 1440 490" version="1.1" xmlns="http://www.w3.org/2000/svg"><defs><linearGradient id="sw-gradient-0" x1="0" x2="0" y1="1" y2="0"><stop stop-color="rgba(66.347, 58.816, 56.397, 1)" offset="0%"/><stop stop-color="rgba(14.37, 35.944, 89.115, 1)" offset="100%"/></linearGradient></defs><path style="transform:translate(0, 0px); opacity:1" fill="url(#sw-gradient-0)" d="M0,98L48,98C96,98,192,98,288,138.8C384,180,480,261,576,310.3C672,359,768,376,864,367.5C960,359,1056,327,1152,261.3C1248,196,1344,98,1440,73.5C1536,49,1632,98,1728,163.3C1824,229,1920,310,2016,294C2112,278,2208,163,2304,114.3C2400,65,2496,82,2592,147C2688,212,2784,327,2880,310.3C2976,294,3072,147,3168,106.2C3264,65,3360,131,3456,147C3552,163,3648,131,3744,163.3C3840,196,3936,294,4032,310.3C4128,327,4224,261,4320,269.5C4416,278,4512,359,4608,367.5C4704,376,4800,310,4896,253.2C4992,196,5088,147,5184,114.3C5280,82,5376,65,5472,81.7C5568,98,5664,147,5760,212.3C5856,278,5952,359,6048,359.3C6144,359,6240,278,6336,253.2C6432,229,6528,261,6624,269.5C6720,278,6816,261,6864,253.2L6912,245L6912,490L6864,490C6816,490,6720,490,6624,490C6528,490,6432,490,6336,490C6240,490,6144,490,6048,490C5952,490,5856,490,5760,490C5664,490,5568,490,5472,490C5376,490,5280,490,5184,490C5088,490,4992,490,4896,490C4800,490,4704,490,4608,490C4512,490,4416,490,4320,490C4224,490,4128,490,4032,490C3936,490,3840,490,3744,490C3648,490,3552,490,3456,490C3360,490,3264,490,3168,490C3072,490,2976,490,2880,490C2784,490,2688,490,2592,490C2496,490,2400,490,2304,490C2208,490,2112,490,2016,490C1920,490,1824,490,1728,490C1632,490,1536,490,1440,490C1344,490,1248,490,1152,490C1056,490,960,490,864,490C768,490,672,490,576,490C480,490,384,490,288,490C192,490,96,490,48,490L0,490Z"/></svg>